<svg width="375" height="300" xmlns="http://www.w3.org/2000/svg" clip-rule="evenodd" version="1.1">

 <g>
  <title>Layer 1</title>
  <g stroke="null" id="svg_5">
   <path stroke="null" id="svg_6" d="m50.56128,4.58294c32.66043,-0.65246 64.97268,0.00712 96.93871,1.97834c-31.58422,32.57378 -63.56806,64.88761 -95.94954,96.93871c-0.98917,-32.9651 -1.31955,-65.93811 -0.98917,-98.91706z" fill="#241c17"/>
  </g>
  <g stroke="null" id="svg_7">
   <path stroke="null" id="svg_8" d="m224.20553,259.38054c20.41129,2.2842 41.0984,2.2842 62.06135,0c-0.21377,-1.04642 -0.78783,-1.62049 -1.72393,-1.72393c-15.08953,-19.22695 -30.60486,-38.19014 -46.54601,-56.88957c8.54895,-7.68354 16.88069,-15.7291 24.99693,-24.13497c29.35847,37.67469 58.95311,75.02527 88.78221,112.05521c-47.39935,1.72048 -95.09522,2.29455 -143.08589,1.72393c-25.77097,-28.65338 -51.62987,-57.38606 -77.57668,-86.19632c49.04398,-51.84019 97.88971,-103.84587 146.53374,-156.01533c-18.38912,-1.14934 -36.77652,-1.14934 -55.16564,0c-40.80016,41.9483 -81.5986,83.89832 -122.39877,125.84662c-3.06686,-0.07585 -5.93893,-1.22571 -8.61963,-3.44785c-5.4252,-7.43702 -11.74683,-14.04655 -18.96319,-19.82515c47.12008,-45.97194 93.66609,-92.51744 139.63803,-139.63803c47.10973,-2.01096 94.23154,-2.29834 141.36196,-0.86196c-57.75153,63.49738 -115.50306,126.99648 -173.2546,190.49386c-0.7206,3.94434 0.42926,7.3922 3.44785,10.34356c13.91898,15.91356 27.4225,32.00469 40.51227,48.26994z" fill="#231b16"/>
  </g>
  <g stroke="null" id="svg_9">
   <path stroke="null" id="svg_10" d="m153.5,289.26544c-33.94204,2.09223 -68.25169,2.79384 -102.93106,2.10063c-0.35081,-35.01757 0,-70.02883 1.05032,-105.03169c34.38318,34.03237 68.34412,68.34412 101.88074,102.93106z" fill="#231b16"/>
  </g>
 </g>
</svg>