<?xml version="1.0" encoding="UTF-8"?>
<!DOCTYPE svg PUBLIC "-//W3C//DTD SVG 1.1//EN" "http://www.w3.org/Graphics/SVG/1.1/DTD/svg11.dtd">
<svg xmlns="http://www.w3.org/2000/svg" version="1.1" width="375px" height="300px" style="shape-rendering:geometricPrecision; text-rendering:geometricPrecision; image-rendering:optimizeQuality; fill-rule:evenodd; clip-rule:evenodd" xmlns:xlink="http://www.w3.org/1999/xlink">
<g><path style="opacity:1" fill="#fefefe" d="M -0.5,-0.5 C 124.5,-0.5 249.5,-0.5 374.5,-0.5C 374.5,99.5 374.5,199.5 374.5,299.5C 249.5,299.5 124.5,299.5 -0.5,299.5C -0.5,199.5 -0.5,99.5 -0.5,-0.5 Z"/></g>
<g><path style="opacity:1" fill="#857c7b" d="M 105.5,68.5 C 122.005,67.1731 138.671,67.1731 155.5,68.5C 155.376,69.1067 155.043,69.44 154.5,69.5C 138.342,68.5036 122.009,68.1702 105.5,68.5 Z"/></g>
<g><path style="opacity:1" fill="#241c17" d="M 105.5,68.5 C 122.009,68.1702 138.342,68.5036 154.5,69.5C 138.535,85.9652 122.368,102.299 106,118.5C 105.5,101.837 105.333,85.17 105.5,68.5 Z"/></g>
<g><path style="opacity:1" fill="#231b16" d="M 193.5,212.5 C 205.34,213.825 217.34,213.825 229.5,212.5C 229.376,211.893 229.043,211.56 228.5,211.5C 219.747,200.347 210.747,189.347 201.5,178.5C 206.459,174.043 211.292,169.376 216,164.5C 233.03,186.354 250.197,208.02 267.5,229.5C 240.005,230.498 212.338,230.831 184.5,230.5C 169.551,213.879 154.551,197.212 139.5,180.5C 167.949,150.429 196.283,120.262 224.5,90C 213.833,89.3333 203.167,89.3333 192.5,90C 168.833,114.333 145.167,138.667 121.5,163C 119.721,162.956 118.055,162.289 116.5,161C 113.353,156.686 109.686,152.852 105.5,149.5C 132.833,122.833 159.833,95.8333 186.5,68.5C 213.827,67.3335 241.161,67.1668 268.5,68C 235,104.833 201.5,141.667 168,178.5C 167.582,180.788 168.249,182.788 170,184.5C 178.074,193.731 185.907,203.065 193.5,212.5 Z"/></g>
<g><path style="opacity:1" fill="#231b16" d="M 154.5,229.5 C 138.342,230.496 122.009,230.83 105.5,230.5C 105.333,213.83 105.5,197.163 106,180.5C 122.368,196.701 138.535,213.035 154.5,229.5 Z"/></g>
<g><path style="opacity:1" fill="#d4d2d0" d="M 228.5,211.5 C 229.043,211.56 229.376,211.893 229.5,212.5C 217.34,213.825 205.34,213.825 193.5,212.5C 205.345,212.828 217.012,212.495 228.5,211.5 Z"/></g>
<g><path style="opacity:1" fill="#88817e" d="M 154.5,229.5 C 155.043,229.56 155.376,229.893 155.5,230.5C 138.671,231.827 122.005,231.827 105.5,230.5C 122.009,230.83 138.342,230.496 154.5,229.5 Z"/></g>
<g><path style="opacity:1" fill="#89827f" d="M 267.5,229.5 C 268.043,229.56 268.376,229.893 268.5,230.5C 240.336,231.829 212.336,231.829 184.5,230.5C 212.338,230.831 240.005,230.498 267.5,229.5 Z"/></g>
</svg>
