<?xml version="1.0" encoding="UTF-8"?>
<!DOCTYPE svg PUBLIC "-//W3C//DTD SVG 1.1//EN" "http://www.w3.org/Graphics/SVG/1.1/DTD/svg11.dtd">
<svg xmlns="http://www.w3.org/2000/svg" version="1.1" width="774px" height="235px" style="shape-rendering:geometricPrecision; text-rendering:geometricPrecision; image-rendering:optimizeQuality; fill-rule:evenodd; clip-rule:evenodd;transform:scale(1.09)" xmlns:xlink="http://www.w3.org/1999/xlink">
<g><path style="opacity:1" fill="#7e7976" d="M 33.5,42.5 C 49.9949,41.3384 66.6616,41.1717 83.5,42C 82.9558,42.7172 82.2891,43.2172 81.5,43.5C 65.5212,42.5958 49.5212,42.2624 33.5,42.5 Z"/></g>
<g><path style="opacity:1" fill="#241e18" d="M 194.5,201.5 C 188.681,202.328 182.681,202.828 176.5,203C 155.169,203.5 133.836,203.667 112.5,203.5C 97.7351,186.896 82.7351,170.396 67.5,154C 95.4675,123.698 123.801,93.6979 152.5,64C 141.833,63.3333 131.167,63.3333 120.5,64C 96.9873,88.6793 72.9873,112.846 48.5,136.5C 43.0282,132.528 38.0282,128.028 33.5,123C 61.1667,96.6667 88.1667,69.6667 114.5,42C 141.833,41.3333 169.167,41.3333 196.5,42C 163.217,78.0718 130.05,114.238 97,150.5C 96.0623,153.88 96.729,156.88 99,159.5C 106.5,168.333 114,177.167 121.5,186C 133.551,188.164 145.551,187.997 157.5,185.5C 148.008,174.504 138.675,163.338 129.5,152C 134.634,147.867 139.468,143.367 144,138.5C 160.853,159.57 177.686,180.57 194.5,201.5 Z"/></g>
<g><path style="opacity:1" fill="#241d18" d="M 33.5,42.5 C 49.5212,42.2624 65.5212,42.5958 81.5,43.5C 66.1393,59.1934 50.806,74.8601 35.5,90.5C 34.8333,85.1667 34.1667,79.8333 33.5,74.5C 33.5,63.8333 33.5,53.1667 33.5,42.5 Z"/></g>
<g><path style="opacity:1" fill="#7a7572" d="M 33.5,74.5 C 34.1667,79.8333 34.8333,85.1667 35.5,90.5C 35.44,91.0431 35.1067,91.3764 34.5,91.5C 33.5046,85.8722 33.1712,80.2055 33.5,74.5 Z"/></g>
<g><path style="opacity:1" fill="#474747" d="M 391.5,111.5 C 394.5,111.5 397.5,111.5 400.5,111.5C 400.5,122.833 400.5,134.167 400.5,145.5C 397.5,145.5 394.5,145.5 391.5,145.5C 391.5,134.167 391.5,122.833 391.5,111.5 Z"/></g>
<g><path style="opacity:1" fill="#484848" d="M 241.5,189.5 C 235.265,189.147 229.265,188.147 223.5,186.5C 223.318,184.409 223.652,182.409 224.5,180.5C 229.12,179.507 233.786,179.173 238.5,179.5C 234.589,158.761 230.255,138.094 225.5,117.5C 228.768,116.513 232.102,116.18 235.5,116.5C 241.323,145.28 247.656,173.947 254.5,202.5C 251.232,203.487 247.898,203.82 244.5,203.5C 244.102,198.588 243.102,193.921 241.5,189.5 Z"/></g>
<g><path style="opacity:1" fill="#494949" d="M 272.5,154.5 C 276.298,155.483 280.298,155.817 284.5,155.5C 284.5,158.167 284.5,160.833 284.5,163.5C 280.298,163.183 276.298,163.517 272.5,164.5C 272.5,177.5 272.5,190.5 272.5,203.5C 269.167,203.5 265.833,203.5 262.5,203.5C 262.5,174.5 262.5,145.5 262.5,116.5C 265.833,116.5 269.167,116.5 272.5,116.5C 272.5,129.167 272.5,141.833 272.5,154.5 Z"/></g>
<g><path style="opacity:1" fill="#484848" d="M 292.5,164.5 C 292.5,161.5 292.5,158.5 292.5,155.5C 296.702,155.817 300.702,155.483 304.5,154.5C 304.5,141.833 304.5,129.167 304.5,116.5C 307.833,116.5 311.167,116.5 314.5,116.5C 314.5,145.5 314.5,174.5 314.5,203.5C 311.167,203.5 307.833,203.5 304.5,203.5C 304.5,190.5 304.5,177.5 304.5,164.5C 300.5,164.5 296.5,164.5 292.5,164.5 Z"/></g>
<g><path style="opacity:1" fill="#494949" d="M 346.5,193.5 C 348.273,196.488 348.94,199.821 348.5,203.5C 347.5,203.5 346.5,203.5 345.5,203.5C 336.548,201.717 330.048,196.717 326,188.5C 324.387,170.219 324.053,151.886 325,133.5C 329.635,122.699 337.802,116.699 349.5,115.5C 349.5,118.833 349.5,122.167 349.5,125.5C 342.208,125.899 337.375,129.565 335,136.5C 334.333,151.833 334.333,167.167 335,182.5C 336.722,188.389 340.555,192.056 346.5,193.5 Z"/></g>
<g><path style="opacity:1" fill="#494949" d="M 356.5,115.5 C 369.428,116.927 377.595,123.927 381,136.5C 381.667,151.5 381.667,166.5 381,181.5C 378.629,195.375 370.462,202.708 356.5,203.5C 356.183,200.428 356.516,197.428 357.5,194.5C 363.159,192.934 367.326,189.6 370,184.5C 371.12,176.406 371.62,168.24 371.5,160C 371.604,151.441 371.104,142.941 370,134.5C 367.229,128.894 362.729,125.894 356.5,125.5C 356.5,122.167 356.5,118.833 356.5,115.5 Z"/></g>
<g><path style="opacity:1" fill="#474747" d="M 427.5,116.5 C 429.167,116.5 430.833,116.5 432.5,116.5C 432.817,119.572 432.484,122.572 431.5,125.5C 421.369,128.763 417.869,135.43 421,145.5C 422.938,148.106 425.438,149.939 428.5,151C 434.411,152.978 440.411,154.645 446.5,156C 462.184,161.203 467.351,171.703 462,187.5C 457.271,197.396 449.438,202.73 438.5,203.5C 438.5,200.5 438.5,197.5 438.5,194.5C 451.649,191.193 456.149,183.193 452,170.5C 449.92,168.877 447.754,167.377 445.5,166C 437.5,163.667 429.5,161.333 421.5,159C 410.618,151.769 407.451,141.936 412,129.5C 415.869,123.452 421.035,119.118 427.5,116.5 Z"/></g>
<g><path style="opacity:1" fill="#474747" d="M 438.5,116.5 C 449.081,117.571 456.414,123.071 460.5,133C 460.167,133.5 459.833,134 459.5,134.5C 456.943,135.407 454.443,136.407 452,137.5C 449.939,131.272 445.772,127.272 439.5,125.5C 438.516,122.572 438.183,119.572 438.5,116.5 Z"/></g>
<g><path style="opacity:1" fill="#494949" d="M 501.5,116.5 C 504.833,116.5 508.167,116.5 511.5,116.5C 511.5,145.5 511.5,174.5 511.5,203.5C 508.167,203.5 504.833,203.5 501.5,203.5C 501.5,174.5 501.5,145.5 501.5,116.5 Z"/></g>
<g><path style="opacity:1" fill="#484848" d="M 517.5,116.5 C 526.473,115.701 535.14,116.868 543.5,120C 554.669,128.526 557.502,139.359 552,152.5C 550.357,154.977 548.524,157.31 546.5,159.5C 555.449,169.341 556.949,180.341 551,192.5C 542.075,202.641 530.908,206.308 517.5,203.5C 517.5,200.5 517.5,197.5 517.5,194.5C 524.856,195.232 531.856,194.066 538.5,191C 544.615,184.878 546.115,177.712 543,169.5C 541.269,167.383 539.102,165.883 536.5,165C 530.175,164.5 523.842,164.334 517.5,164.5C 517.5,161.5 517.5,158.5 517.5,155.5C 523.176,155.666 528.843,155.499 534.5,155C 541.718,153.114 545.051,148.448 544.5,141C 544.381,134.881 541.715,130.214 536.5,127C 530.258,125.63 523.925,125.13 517.5,125.5C 517.5,122.5 517.5,119.5 517.5,116.5 Z"/></g>
<g><path style="opacity:1" fill="#484848" d="M 564.5,116.5 C 567.833,116.5 571.167,116.5 574.5,116.5C 574.5,142.167 574.5,167.833 574.5,193.5C 586.833,193.5 599.167,193.5 611.5,193.5C 611.5,196.833 611.5,200.167 611.5,203.5C 595.833,203.5 580.167,203.5 564.5,203.5C 564.5,174.5 564.5,145.5 564.5,116.5 Z"/></g>
<g><path style="opacity:1" fill="#494949" d="M 638.5,115.5 C 640.167,115.5 641.833,115.5 643.5,115.5C 643.5,118.833 643.5,122.167 643.5,125.5C 636.545,126.28 631.711,129.947 629,136.5C 628.833,144.167 628.667,151.833 628.5,159.5C 628.377,168.239 628.877,176.905 630,185.5C 633.066,190.619 637.566,193.619 643.5,194.5C 643.5,197.5 643.5,200.5 643.5,203.5C 630.448,202.883 622.281,196.216 619,183.5C 618.333,167.167 618.333,150.833 619,134.5C 622.401,124.901 628.901,118.568 638.5,115.5 Z"/></g>
<g><path style="opacity:1" fill="#494949" d="M 650.5,115.5 C 662.557,116.715 670.724,123.048 675,134.5C 675.667,150.5 675.667,166.5 675,182.5C 672.213,195.788 664.046,202.788 650.5,203.5C 650.183,200.428 650.516,197.428 651.5,194.5C 657.684,192.834 662.184,189.167 665,183.5C 665.667,167.833 665.667,152.167 665,136.5C 662.301,129.962 657.468,126.295 650.5,125.5C 650.5,122.167 650.5,118.833 650.5,115.5 Z"/></g>
<g><path style="opacity:1" fill="#484848" d="M 704.5,115.5 C 706.167,115.5 707.833,115.5 709.5,115.5C 709.5,118.833 709.5,122.167 709.5,125.5C 703.283,125.877 698.783,128.877 696,134.5C 695.333,150.833 695.333,167.167 696,183.5C 698.179,189.352 702.346,193.018 708.5,194.5C 709.484,197.428 709.817,200.428 709.5,203.5C 702.973,203.569 697.306,201.402 692.5,197C 689.433,193.703 687.267,189.869 686,185.5C 685.333,168.167 685.333,150.833 686,133.5C 689.416,124.583 695.583,118.583 704.5,115.5 Z"/></g>
<g><path style="opacity:1" fill="#494949" d="M 716.5,115.5 C 730.32,117.653 737.987,125.653 739.5,139.5C 736.427,140.199 733.427,141.199 730.5,142.5C 730.19,133.194 725.523,127.528 716.5,125.5C 716.5,122.167 716.5,118.833 716.5,115.5 Z"/></g>
<g><path style="opacity:1" fill="#4a4a4a" d="M 219.5,129.5 C 220.5,129.5 221.5,129.5 222.5,129.5C 223.336,135.182 224.336,140.848 225.5,146.5C 221.238,165.479 217.238,184.479 213.5,203.5C 210.167,203.5 206.833,203.5 203.5,203.5C 208.961,178.861 214.294,154.195 219.5,129.5 Z"/></g>
<g><path style="opacity:1" fill="#6f6f6f" d="M 272.5,154.5 C 276.833,154.5 281.167,154.5 285.5,154.5C 285.5,157.833 285.5,161.167 285.5,164.5C 281.167,164.5 276.833,164.5 272.5,164.5C 276.298,163.517 280.298,163.183 284.5,163.5C 284.5,160.833 284.5,158.167 284.5,155.5C 280.298,155.817 276.298,155.483 272.5,154.5 Z"/></g>
<g><path style="opacity:1" fill="#231c17" d="M 35.5,155.5 C 50.806,171.14 66.1393,186.807 81.5,202.5C 65.5145,203.324 49.5145,203.657 33.5,203.5C 33.5,191.833 33.5,180.167 33.5,168.5C 34.1667,164.167 34.8333,159.833 35.5,155.5 Z"/></g>
<g><path style="opacity:1" fill="#939393" d="M 304.5,154.5 C 300.702,155.483 296.702,155.817 292.5,155.5C 292.5,158.5 292.5,161.5 292.5,164.5C 291.521,161.375 291.187,158.042 291.5,154.5C 295.833,154.5 300.167,154.5 304.5,154.5 Z"/></g>
<g><path style="opacity:1" fill="#474747" d="M 716.5,159.5 C 724.167,159.5 731.833,159.5 739.5,159.5C 739.666,167.84 739.5,176.173 739,184.5C 735.562,195.78 728.062,202.113 716.5,203.5C 716.335,200.482 716.502,197.482 717,194.5C 721.855,192.98 725.522,189.98 728,185.5C 729.351,179.928 729.851,174.262 729.5,168.5C 725.167,168.5 720.833,168.5 716.5,168.5C 716.5,165.5 716.5,162.5 716.5,159.5 Z"/></g>
<g><path style="opacity:1" fill="#777370" d="M 35.5,155.5 C 34.8333,159.833 34.1667,164.167 33.5,168.5C 33.1734,163.786 33.5067,159.12 34.5,154.5C 35.1067,154.624 35.44,154.957 35.5,155.5 Z"/></g>
<g><path style="opacity:1" fill="#4a4a4a" d="M 416.5,180.5 C 418.46,183.909 420.793,187.242 423.5,190.5C 426.148,192.658 429.148,193.992 432.5,194.5C 432.5,197.5 432.5,200.5 432.5,203.5C 420.973,202.813 413.307,196.98 409.5,186C 409.833,185.167 410.167,184.333 410.5,183.5C 412.78,182.864 414.78,181.864 416.5,180.5 Z"/></g>
<g><path style="opacity:1" fill="#929292" d="M 223.5,186.5 C 229.265,188.147 235.265,189.147 241.5,189.5C 235.167,189.5 228.833,189.5 222.5,189.5C 222.263,188.209 222.596,187.209 223.5,186.5 Z"/></g>
<g><path style="opacity:1" fill="#8d8d8d" d="M 346.5,193.5 C 347.5,193.5 348.5,193.5 349.5,193.5C 349.5,197.167 349.5,200.833 349.5,204.5C 347.901,204.768 346.568,204.434 345.5,203.5C 346.5,203.5 347.5,203.5 348.5,203.5C 348.94,199.821 348.273,196.488 346.5,193.5 Z"/></g>
<g><path style="opacity:1" fill="#898481" d="M 81.5,202.5 C 82.3764,202.369 83.0431,202.702 83.5,203.5C 66.6714,204.827 50.0048,204.827 33.5,203.5C 49.5145,203.657 65.5145,203.324 81.5,202.5 Z"/></g>
<g><path style="opacity:1" fill="#898581" d="M 194.5,201.5 C 195.478,201.811 196.145,202.478 196.5,203.5C 168.336,204.829 140.336,204.829 112.5,203.5C 133.836,203.667 155.169,203.5 176.5,203C 182.681,202.828 188.681,202.328 194.5,201.5 Z"/></g>
</svg>
