<?xml version="1.0" encoding="UTF-8"?>
<!DOCTYPE svg PUBLIC "-//W3C//DTD SVG 1.1//EN" "http://www.w3.org/Graphics/SVG/1.1/DTD/svg11.dtd">
<svg xmlns="http://www.w3.org/2000/svg" version="1.1" width="1050px" height="256px" style="shape-rendering:geometricPrecision; text-rendering:geometricPrecision; image-rendering:optimizeQuality; fill-rule:evenodd; clip-rule:evenodd" xmlns:xlink="http://www.w3.org/1999/xlink">
<g><path style="opacity:1" fill="#fdfdfd" d="M -0.5,-0.5 C 124.167,-0.5 248.833,-0.5 373.5,-0.5C 373.5,51.8333 373.5,104.167 373.5,156.5C 372.191,163.068 372.191,169.734 373.5,176.5C 373.5,202.833 373.5,229.167 373.5,255.5C 248.833,255.5 124.167,255.5 -0.5,255.5C -0.5,170.167 -0.5,84.8333 -0.5,-0.5 Z"/></g>
<g><path style="opacity:1" fill="#c8c4c3" d="M 96.5,26.5 C 86.5223,25.168 76.189,24.5013 65.5,24.5C 54.9945,24.5002 44.6612,24.8335 34.5,25.5C 34.1667,25.5 33.8333,25.5 33.5,25.5C 54.4738,23.5112 75.8072,22.8445 97.5,23.5C 97.7373,24.791 97.404,25.791 96.5,26.5 Z"/></g>
<g><path style="opacity:1" fill="#c9c5c4" d="M 136.5,24.5 C 170.663,23.5017 204.996,23.1683 239.5,23.5C 239.737,24.791 239.404,25.791 238.5,26.5C 204.85,24.5068 170.85,23.8402 136.5,24.5 Z"/></g>
<g><path style="opacity:1" fill="#706664" d="M 34.5,25.5 C 44.6612,24.8335 54.9945,24.5002 65.5,24.5C 76.189,24.5013 86.5223,25.168 96.5,26.5C 96.1667,26.5 95.8333,26.5 95.5,26.5C 75.3402,25.5028 55.0069,25.1695 34.5,25.5 Z"/></g>
<g><path style="opacity:1" fill="#726967" d="M 135.5,25.5 C 135.5,24.8333 135.833,24.5 136.5,24.5C 170.85,23.8402 204.85,24.5068 238.5,26.5C 237.833,27.8333 236.833,28.8333 235.5,29.5C 235.511,27.9826 236.177,26.8159 237.5,26C 203.502,25.5 169.502,25.3333 135.5,25.5 Z"/></g>
<g><path style="opacity:1" fill="#6e6a65" d="M 33.5,25.5 C 33.8333,25.5 34.1667,25.5 34.5,25.5C 34.1695,46.0069 34.5028,66.3402 35.5,86.5C 35.44,87.0431 35.1067,87.3764 34.5,87.5C 33.5003,66.8441 33.167,46.1774 33.5,25.5 Z"/></g>
<g><path style="opacity:1" fill="#231b16" d="M 34.5,25.5 C 55.0069,25.1695 75.3402,25.5028 95.5,26.5C 75.8333,46.8333 55.8333,66.8333 35.5,86.5C 34.5028,66.3402 34.1695,46.0069 34.5,25.5 Z"/></g>
<g><path style="opacity:1" fill="#231b16" d="M 135.5,25.5 C 169.502,25.3333 203.502,25.5 237.5,26C 236.177,26.8159 235.511,27.9826 235.5,29.5C 195.578,72.7643 155.911,116.431 116.5,160.5C 114.413,161.585 113.08,163.251 112.5,165.5C 111.957,165.56 111.624,165.893 111.5,166.5C 122.748,180.014 133.748,193.681 144.5,207.5C 159.672,208.826 175.005,208.826 190.5,207.5C 190.145,206.478 189.478,205.811 188.5,205.5C 177.609,191.457 166.609,177.624 155.5,164C 160.818,157.897 166.485,152.064 172.5,146.5C 173.672,146.919 174.672,147.585 175.5,148.5C 195.808,175.471 216.475,202.138 237.5,228.5C 203.004,229.498 168.337,229.832 133.5,229.5C 114.283,208.762 95.283,187.762 76.5,166.5C 111.434,128.897 146.767,91.5632 182.5,54.5C 183.478,54.189 184.145,53.5223 184.5,52.5C 170.846,51.3339 157.179,51.1673 143.5,52C 142.944,52.3826 142.611,52.8826 142.5,53.5C 112.304,83.5744 82.6374,114.074 53.5,145C 46.5249,140.205 40.1916,134.372 34.5,127.5C 68.1878,93.4791 101.854,59.4791 135.5,25.5 Z"/></g>
<g><path style="opacity:1" fill="#a7a1a0" d="M 182.5,54.5 C 176.537,53.1702 170.204,52.5036 163.5,52.5C 156.454,52.5356 149.454,52.869 142.5,53.5C 142.611,52.8826 142.944,52.3826 143.5,52C 157.179,51.1673 170.846,51.3339 184.5,52.5C 184.145,53.5223 183.478,54.189 182.5,54.5 Z"/></g>
<g><path style="opacity:0.843" fill="#000000" d="M 514.5,94.5 C 521.833,94.5 529.167,94.5 536.5,94.5C 536.5,112.833 536.5,131.167 536.5,149.5C 529.245,149.813 522.079,149.48 515,148.5C 514.5,130.503 514.333,112.503 514.5,94.5 Z"/></g>
<g><path style="opacity:0.882" fill="#000000" d="M 451.5,99.5 C 455.167,99.5 458.833,99.5 462.5,99.5C 462.5,106.5 462.5,113.5 462.5,120.5C 452.554,119.891 445.721,124.225 442,133.5C 440.866,144.598 440.366,155.765 440.5,167C 440.667,177.167 440.833,187.333 441,197.5C 444.662,207.169 451.662,212.503 462,213.5C 462.5,220.158 462.666,226.825 462.5,233.5C 440.126,234.074 425.626,223.741 419,202.5C 418.333,178.167 418.333,153.833 419,129.5C 423.974,113.022 434.807,103.022 451.5,99.5 Z"/></g>
<g><path style="opacity:0.865" fill="#000000" d="M 464.5,99.5 C 488.675,99.178 503.175,110.845 508,134.5C 508.667,155.5 508.667,176.5 508,197.5C 503.492,222.168 488.659,234.168 463.5,233.5C 463.334,226.825 463.5,220.158 464,213.5C 474.157,212.921 481.157,207.921 485,198.5C 485.667,177.5 485.667,156.5 485,135.5C 481.734,125.231 474.734,119.898 464,119.5C 463.208,112.753 463.374,106.086 464.5,99.5 Z"/></g>
<g><path style="opacity:0.882" fill="#000000" d="M 875.5,99.5 C 879.167,99.5 882.833,99.5 886.5,99.5C 886.5,106.5 886.5,113.5 886.5,120.5C 876.554,119.891 869.721,124.225 866,133.5C 864.866,144.598 864.366,155.765 864.5,167C 864.667,177.167 864.833,187.333 865,197.5C 868.662,207.169 875.662,212.503 886,213.5C 886.5,220.158 886.666,226.825 886.5,233.5C 864.126,234.074 849.626,223.741 843,202.5C 842.333,178.167 842.333,153.833 843,129.5C 847.974,113.022 858.807,103.022 875.5,99.5 Z"/></g>
<g><path style="opacity:0.865" fill="#000000" d="M 888.5,99.5 C 912.675,99.178 927.175,110.845 932,134.5C 932.667,155.5 932.667,176.5 932,197.5C 927.492,222.168 912.659,234.168 887.5,233.5C 887.334,226.825 887.5,220.158 888,213.5C 898.157,212.921 905.157,207.921 909,198.5C 909.667,177.5 909.667,156.5 909,135.5C 905.734,125.231 898.734,119.898 888,119.5C 887.208,112.753 887.374,106.086 888.5,99.5 Z"/></g>
<g><path style="opacity:0.875" fill="#000000" d="M 971.5,99.5 C 993.189,95.7646 1009.69,103.098 1021,121.5C 1023.51,127.229 1024.68,133.229 1024.5,139.5C 1017.17,141.833 1009.83,144.167 1002.5,146.5C 1004.29,130.695 997.46,121.695 982,119.5C 970.716,119.965 963.716,125.631 961,136.5C 960.333,156.833 960.333,177.167 961,197.5C 963.564,205.73 969.064,210.896 977.5,213C 987.344,214.494 994.844,210.994 1000,202.5C 1001.38,195.924 1001.88,189.257 1001.5,182.5C 995.167,182.5 988.833,182.5 982.5,182.5C 982.5,175.833 982.5,169.167 982.5,162.5C 996.5,162.5 1010.5,162.5 1024.5,162.5C 1024.93,177.225 1024.43,191.892 1023,206.5C 1012.29,228.5 994.789,237.334 970.5,233C 954.15,229.314 943.65,219.481 939,203.5C 938.333,178.833 938.333,154.167 939,129.5C 944.012,112.981 954.845,102.981 971.5,99.5 Z"/></g>
<g><path style="opacity:1" fill="#9d9d9d" d="M 295.5,101.5 C 288.745,100.877 282.412,101.544 276.5,103.5C 275.596,102.791 275.263,101.791 275.5,100.5C 282.354,100.176 289.021,100.509 295.5,101.5 Z"/></g>
<g><path style="opacity:0.899" fill="#000000" d="M 373.5,176.5 C 372.191,169.734 372.191,163.068 373.5,156.5C 378.833,156.5 384.167,156.5 389.5,156.5C 389.5,137.833 389.5,119.167 389.5,100.5C 396.833,100.5 404.167,100.5 411.5,100.5C 411.5,144.5 411.5,188.5 411.5,232.5C 404.167,232.5 396.833,232.5 389.5,232.5C 389.5,213.833 389.5,195.167 389.5,176.5C 384.167,176.5 378.833,176.5 373.5,176.5 Z"/></g>
<g><path style="opacity:0.891" fill="#000000" d="M 572.5,100.5 C 575.5,100.5 578.5,100.5 581.5,100.5C 581.5,107.167 581.5,113.833 581.5,120.5C 570.966,121.367 564.966,127.034 563.5,137.5C 564.825,144.328 568.825,148.828 575.5,151C 584.833,153.667 594.167,156.333 603.5,159C 626.932,169.945 633.432,187.445 623,211.5C 613.762,226.538 600.262,233.871 582.5,233.5C 582.5,226.833 582.5,220.167 582.5,213.5C 598.938,211.587 606.105,202.587 604,186.5C 601.708,182.212 598.208,179.378 593.5,178C 583.934,174.954 574.267,172.287 564.5,170C 549.576,164.324 541.91,153.491 541.5,137.5C 541.869,123.664 547.869,113.164 559.5,106C 563.893,104.044 568.226,102.211 572.5,100.5 Z"/></g>
<g><path style="opacity:0.856" fill="#000000" d="M 582.5,100.5 C 603.183,100.2 616.516,109.867 622.5,129.5C 622.167,130.5 621.833,131.5 621.5,132.5C 614.994,135.114 608.327,137.114 601.5,138.5C 600.363,127.029 594.029,121.029 582.5,120.5C 582.5,113.833 582.5,107.167 582.5,100.5 Z"/></g>
<g><path style="opacity:0.886" fill="#000000" d="M 673.5,100.5 C 680.833,100.5 688.167,100.5 695.5,100.5C 695.5,144.5 695.5,188.5 695.5,232.5C 688.167,232.5 680.833,232.5 673.5,232.5C 673.5,188.5 673.5,144.5 673.5,100.5 Z"/></g>
<g><path style="opacity:0.898" fill="#000000" d="M 696.5,100.5 C 705.839,100.334 715.173,100.5 724.5,101C 745.874,104.891 757.208,117.724 758.5,139.5C 758.233,149.815 754.566,158.648 747.5,166C 759.934,180.845 761.767,197.012 753,214.5C 747.854,222.648 740.687,228.148 731.5,231C 719.896,232.412 708.229,232.912 696.5,232.5C 696.5,226.167 696.5,219.833 696.5,213.5C 703.508,213.666 710.508,213.5 717.5,213C 733.311,208.876 738.811,199.042 734,183.5C 732.167,181.667 730.333,179.833 728.5,178C 717.898,176.597 707.231,176.097 696.5,176.5C 696.5,169.833 696.5,163.167 696.5,156.5C 706.912,156.926 717.246,156.426 727.5,155C 733.151,151.868 735.818,147.035 735.5,140.5C 734.259,127.759 727.259,120.926 714.5,120C 708.509,119.501 702.509,119.334 696.5,119.5C 696.5,113.167 696.5,106.833 696.5,100.5 Z"/></g>
<g><path style="opacity:0.913" fill="#000000" d="M 764.5,100.5 C 771.833,100.5 779.167,100.5 786.5,100.5C 786.5,137.833 786.5,175.167 786.5,212.5C 804.167,212.5 821.833,212.5 839.5,212.5C 839.5,219.167 839.5,225.833 839.5,232.5C 814.5,232.5 789.5,232.5 764.5,232.5C 764.5,188.5 764.5,144.5 764.5,100.5 Z"/></g>
<g><path style="opacity:1" fill="#060606" d="M 295.5,101.5 C 305.769,144.586 315.435,187.919 324.5,231.5C 318.167,231.5 311.833,231.5 305.5,231.5C 305.737,230.209 305.404,229.209 304.5,228.5C 304.59,225.848 303.924,223.515 302.5,221.5C 302.795,219.265 302.461,217.265 301.5,215.5C 301.5,214.167 301.5,212.833 301.5,211.5C 291.442,212.14 281.775,211.473 272.5,209.5C 272.5,208.167 272.5,206.833 272.5,205.5C 273.657,202.727 274.324,199.727 274.5,196.5C 275.234,195.292 275.567,193.959 275.5,192.5C 282.167,192.5 288.833,192.5 295.5,192.5C 295.784,190.585 295.451,188.919 294.5,187.5C 294.5,186.833 294.5,186.167 294.5,185.5C 294.59,182.848 293.924,180.515 292.5,178.5C 292.5,177.833 292.5,177.167 292.5,176.5C 292.59,173.848 291.924,171.515 290.5,169.5C 290.702,167.05 290.369,164.717 289.5,162.5C 288.66,158.015 287.66,153.681 286.5,149.5C 286.634,147.708 286.301,146.042 285.5,144.5C 284.66,140.015 283.66,135.681 282.5,131.5C 282.634,129.708 282.301,128.042 281.5,126.5C 281.59,123.848 280.924,121.515 279.5,119.5C 279.5,118.833 279.5,118.167 279.5,117.5C 279.59,114.848 278.924,112.515 277.5,110.5C 277.702,108.05 277.369,105.717 276.5,103.5C 282.412,101.544 288.745,100.877 295.5,101.5 Z"/></g>
<g><path style="opacity:1" fill="#575757" d="M 350.5,156.5 C 349.503,138.341 349.17,120.008 349.5,101.5C 343.5,101.5 337.5,101.5 331.5,101.5C 331.5,144.833 331.5,188.167 331.5,231.5C 337.5,231.5 343.5,231.5 349.5,231.5C 349.17,212.659 349.503,193.993 350.5,175.5C 350.5,194.5 350.5,213.5 350.5,232.5C 343.833,232.5 337.167,232.5 330.5,232.5C 330.5,188.5 330.5,144.5 330.5,100.5C 337.167,100.5 343.833,100.5 350.5,100.5C 350.5,119.167 350.5,137.833 350.5,156.5 Z"/></g>
<g><path style="opacity:1" fill="#000000" d="M 350.5,156.5 C 356.31,157.49 362.31,157.823 368.5,157.5C 368.5,163.5 368.5,169.5 368.5,175.5C 362.5,175.5 356.5,175.5 350.5,175.5C 349.503,193.993 349.17,212.659 349.5,231.5C 343.5,231.5 337.5,231.5 331.5,231.5C 331.5,188.167 331.5,144.833 331.5,101.5C 337.5,101.5 343.5,101.5 349.5,101.5C 349.17,120.008 349.503,138.341 350.5,156.5 Z"/></g>
<g><path style="opacity:1" fill="#929292" d="M 277.5,110.5 C 278.924,112.515 279.59,114.848 279.5,117.5C 278.076,115.485 277.41,113.152 277.5,110.5 Z"/></g>
<g><path style="opacity:1" fill="#090909" d="M 281.5,154.5 C 280.076,156.515 279.41,158.848 279.5,161.5C 278.139,166.304 277.139,171.304 276.5,176.5C 275.076,178.515 274.41,180.848 274.5,183.5C 273.699,185.042 273.366,186.708 273.5,188.5C 272.057,192.615 271.057,196.948 270.5,201.5C 270.5,202.167 270.5,202.833 270.5,203.5C 269.076,205.515 268.41,207.848 268.5,210.5C 268.5,211.167 268.5,211.833 268.5,212.5C 267.076,214.515 266.41,216.848 266.5,219.5C 266.5,220.167 266.5,220.833 266.5,221.5C 265.076,223.515 264.41,225.848 264.5,228.5C 264.737,229.791 264.404,230.791 263.5,231.5C 257.5,231.5 251.5,231.5 245.5,231.5C 245.5,230.167 245.5,228.833 245.5,227.5C 253.032,191.706 261.032,156.04 269.5,120.5C 272.167,120.5 274.833,120.5 277.5,120.5C 279.036,129.512 280.702,138.512 282.5,147.5C 282.247,149.858 281.914,152.192 281.5,154.5 Z"/></g>
<g><path style="opacity:1" fill="#919191" d="M 279.5,119.5 C 280.924,121.515 281.59,123.848 281.5,126.5C 280.076,124.485 279.41,122.152 279.5,119.5 Z"/></g>
<g><path style="opacity:1" fill="#b1b1b1" d="M 282.5,131.5 C 283.66,135.681 284.66,140.015 285.5,144.5C 282.965,140.645 281.965,136.312 282.5,131.5 Z"/></g>
<g><path style="opacity:1" fill="#afafaf" d="M 286.5,149.5 C 287.66,153.681 288.66,158.015 289.5,162.5C 286.965,158.645 285.965,154.312 286.5,149.5 Z"/></g>
<g><path style="opacity:1" fill="#8f8f8f" d="M 350.5,156.5 C 356.833,156.5 363.167,156.5 369.5,156.5C 369.823,163.022 369.49,169.355 368.5,175.5C 368.5,169.5 368.5,163.5 368.5,157.5C 362.31,157.823 356.31,157.49 350.5,156.5 Z"/></g>
<g><path style="opacity:1" fill="#9a9a9a" d="M 281.5,154.5 C 281.59,157.152 280.924,159.485 279.5,161.5C 279.41,158.848 280.076,156.515 281.5,154.5 Z"/></g>
<g><path style="opacity:1" fill="#a6a3a0" d="M 116.5,160.5 C 115.92,162.749 114.587,164.415 112.5,165.5C 113.08,163.251 114.413,161.585 116.5,160.5 Z"/></g>
<g><path style="opacity:1" fill="#231a15" d="M 35.5,168.5 C 55.8333,188.167 75.8333,208.167 95.5,228.5C 75.3402,229.497 55.0069,229.83 34.5,229.5C 34.1695,208.993 34.5028,188.66 35.5,168.5 Z"/></g>
<g><path style="opacity:1" fill="#989898" d="M 290.5,169.5 C 291.924,171.515 292.59,173.848 292.5,176.5C 291.076,174.485 290.41,172.152 290.5,169.5 Z"/></g>
<g><path style="opacity:1" fill="#d4d4d4" d="M 350.5,175.5 C 356.5,175.5 362.5,175.5 368.5,175.5C 363.025,176.489 357.358,176.822 351.5,176.5C 351.83,195.341 351.497,214.007 350.5,232.5C 350.5,213.5 350.5,194.5 350.5,175.5 Z"/></g>
<g><path style="opacity:1" fill="#6e6864" d="M 35.5,168.5 C 34.5028,188.66 34.1695,208.993 34.5,229.5C 55.0069,229.83 75.3402,229.497 95.5,228.5C 95.8333,228.5 96.1667,228.5 96.5,228.5C 75.8599,230.489 54.8599,231.155 33.5,230.5C 33.167,209.489 33.5003,188.489 34.5,167.5C 35.1067,167.624 35.44,167.957 35.5,168.5 Z"/></g>
<g><path style="opacity:1" fill="#8b8b8b" d="M 276.5,176.5 C 276.59,179.152 275.924,181.485 274.5,183.5C 274.41,180.848 275.076,178.515 276.5,176.5 Z"/></g>
<g><path style="opacity:1" fill="#969696" d="M 292.5,178.5 C 293.924,180.515 294.59,182.848 294.5,185.5C 293.076,183.485 292.41,181.152 292.5,178.5 Z"/></g>
<g><path style="opacity:1" fill="#a2a2a2" d="M 294.5,187.5 C 295.451,188.919 295.784,190.585 295.5,192.5C 288.833,192.5 282.167,192.5 275.5,192.5C 281.645,191.51 287.978,191.177 294.5,191.5C 294.5,190.167 294.5,188.833 294.5,187.5 Z"/></g>
<g><path style="opacity:0.865" fill="#000000" d="M 556.5,192.5 C 558.167,192.5 559.833,192.5 561.5,192.5C 562.513,204.844 569.179,211.844 581.5,213.5C 581.5,220.167 581.5,226.833 581.5,233.5C 561.511,233.431 548.011,224.098 541,205.5C 540.186,203.098 540.353,200.765 541.5,198.5C 546.759,196.865 551.759,194.865 556.5,192.5 Z"/></g>
<g><path style="opacity:1" fill="#cacaca" d="M 273.5,188.5 C 273.194,191.385 273.527,194.052 274.5,196.5C 274.324,199.727 273.657,202.727 272.5,205.5C 272.66,203.801 272.494,202.134 272,200.5C 271.617,201.056 271.117,201.389 270.5,201.5C 271.057,196.948 272.057,192.615 273.5,188.5 Z"/></g>
<g><path style="opacity:1" fill="#9b9895" d="M 188.5,205.5 C 189.478,205.811 190.145,206.478 190.5,207.5C 175.005,208.826 159.672,208.826 144.5,207.5C 159.538,208.15 174.205,207.483 188.5,205.5 Z"/></g>
<g><path style="opacity:1" fill="#8d8d8d" d="M 270.5,203.5 C 270.59,206.152 269.924,208.485 268.5,210.5C 268.41,207.848 269.076,205.515 270.5,203.5 Z"/></g>
<g><path style="opacity:1" fill="#c5c5c5" d="M 272.5,209.5 C 281.775,211.473 291.442,212.14 301.5,211.5C 301.5,212.833 301.5,214.167 301.5,215.5C 300.596,214.791 300.263,213.791 300.5,212.5C 290.833,212.5 281.167,212.5 271.5,212.5C 271.263,211.209 271.596,210.209 272.5,209.5 Z"/></g>
<g><path style="opacity:1" fill="#8e8e8e" d="M 268.5,212.5 C 268.59,215.152 267.924,217.485 266.5,219.5C 266.41,216.848 267.076,214.515 268.5,212.5 Z"/></g>
<g><path style="opacity:1" fill="#8f8f8f" d="M 266.5,221.5 C 266.59,224.152 265.924,226.485 264.5,228.5C 264.41,225.848 265.076,223.515 266.5,221.5 Z"/></g>
<g><path style="opacity:1" fill="#919191" d="M 302.5,221.5 C 303.924,223.515 304.59,225.848 304.5,228.5C 303.076,226.485 302.41,224.152 302.5,221.5 Z"/></g>
<g><path style="opacity:1" fill="#6a6360" d="M 237.5,228.5 C 237.833,228.5 238.167,228.5 238.5,228.5C 203.849,230.493 168.849,231.16 133.5,230.5C 133.5,230.167 133.5,229.833 133.5,229.5C 168.337,229.832 203.004,229.498 237.5,228.5 Z"/></g>
<g><path style="opacity:1" fill="#c3bfbe" d="M 96.5,228.5 C 97.404,229.209 97.7373,230.209 97.5,231.5C 75.9935,231.831 54.6601,231.497 33.5,230.5C 54.8599,231.155 75.8599,230.489 96.5,228.5 Z"/></g>
<g><path style="opacity:1" fill="#c3bfbe" d="M 238.5,228.5 C 239.404,229.209 239.737,230.209 239.5,231.5C 203.996,231.832 168.663,231.498 133.5,230.5C 168.849,231.16 203.849,230.493 238.5,228.5 Z"/></g>
<g><path style="opacity:1" fill="#606060" d="M 245.5,227.5 C 245.5,228.833 245.5,230.167 245.5,231.5C 251.5,231.5 257.5,231.5 263.5,231.5C 257.355,232.49 251.022,232.823 244.5,232.5C 244.216,230.585 244.549,228.919 245.5,227.5 Z"/></g>
<g><path style="opacity:1" fill="#626262" d="M 304.5,228.5 C 305.404,229.209 305.737,230.209 305.5,231.5C 311.833,231.5 318.167,231.5 324.5,231.5C 318.021,232.491 311.354,232.824 304.5,232.5C 304.5,231.167 304.5,229.833 304.5,228.5 Z"/></g>
</svg>
